<?xml version="1.0" standalone="no"?><!DOCTYPE svg PUBLIC "-//W3C//DTD SVG 1.1//EN" "http://www.w3.org/Graphics/SVG/1.1/DTD/svg11.dtd"><svg t="1636868818392" class="icon" viewBox="0 0 1024 1024" version="1.1" xmlns="http://www.w3.org/2000/svg" p-id="2774" width="16" height="16" xmlns:xlink="http://www.w3.org/1999/xlink"><defs><style type="text/css"></style></defs><path d="M160 160v704h704V160H160z m64 64h576v576H224V224z m389.248 96.064c-41.056 0-55.136 29.344-55.136 49.056v52.32c0 26.56 14.496 51.936 51.904 51.936 62.784-0.064 55.168-47.584 55.168-80.576h-49.056v17.312h28.928c0 25.76-12.064 43.072-35.008 43.072-18.112 0-28.544-15.68-28.544-37.44v-43.424c0-20.16 18.88-31.744 31.744-31.744 22.944 0 31.744 20.096 31.744 20.096l17.312-11.68s-8.416-28.928-49.056-28.928z m-178.56 98.88c-28.96 0-73.184 2.784-114.624 1.184v12.864c24.96 4.832 35.36 2.4 35.36 38.624v177.024c0 36.608-10.432 33.792-35.36 38.624v13.312c12.064-0.416 32.96-1.632 54.24-1.632 20.16 0 46.304 0.832 57.6 1.6v-13.28c-32.224-4.416-41.92-0.8-41.92-38.624v-74.816c10.88 0.8 20.16 0.736 34.656 0.736 27.36 49.088 53.472 85.76 68.352 103.04 26.944 32.608 70.048 27.808 80.512 22.976v-12.064c-16.096-0.032-32.224-10.88-43.872-23.776a520.992 520.992 0 0 1-68-94.912c36.224-8.864 63.168-43.072 63.168-76.896 0-50.688-39.04-73.984-90.112-73.984z m-8.448 20.416c37.824 0 60.32 19.744 60.32 55.968 0 35.456-24.16 59.104-64.384 59.104-14.88 0-21.696-0.384-32.16-1.184v-112.672c10.432-1.216 24.128-1.216 36.224-1.216z" p-id="2775"></path></svg>